<?xml version="1.0" encoding="UTF-8"?>
<!DOCTYPE svg PUBLIC "-//W3C//DTD SVG 1.1//EN" "http://www.w3.org/Graphics/SVG/1.1/DTD/svg11.dtd">
<!-- Creator: CorelDRAW 2020 (64 Bit) -->
<svg xmlns="http://www.w3.org/2000/svg" xml:space="preserve" width="49.1626mm" height="49.2685mm" version="1.1" style="shape-rendering:geometricPrecision; text-rendering:geometricPrecision; image-rendering:optimizeQuality; fill-rule:evenodd; clip-rule:evenodd"
viewBox="0 0 3228.09 3235.04"
 xmlns:xlink="http://www.w3.org/1999/xlink"
 xmlns:xodm="http://www.corel.com/coreldraw/odm/2003">
 <defs>
  <style type="text/css">
   <![CDATA[
    .str0 {stroke:#1E3050;stroke-width:185.31;stroke-miterlimit:22.9256}
    .fil1 {fill:#1E3050}
    .fil0 {fill:#FFFFFE}
   ]]>
  </style>
 </defs>
 <g id="Camada_x0020_1">
  <metadata id="CorelCorpID_0Corel-Layer"/>
  <path class="fil0 str0" d="M100.65 3129.8c180,-21.35 466.54,-116.22 648.88,-163.22 186.31,-48.03 139.61,-25.43 297.07,37.51 104.36,41.71 195.48,65.77 313.91,84.83 1412.98,227.5 2397.41,-1446.71 1316.97,-2549.71 -602.59,-615.16 -1617.6,-605.6 -2229.8,93.66 -320.49,366.06 -473.4,998.85 -230.05,1549.55 49.58,112.2 98.39,152.55 55.88,291.84 -47.08,154.29 -161.89,506.66 -172.85,655.53z"/>
  <path class="fil1" d="M469.47 2751.93c170.61,-7.73 377.49,-150.33 529.3,-65.21 1036.37,581.12 2251.44,-471.81 1769.12,-1576.66 -124.02,-284.09 -381.27,-528.65 -652.83,-651.39 -501.27,-226.57 -1137.28,-63.8 -1438.89,315.93 -106.15,133.65 -171.41,218.87 -236.18,406.52 -123.79,358.66 -98.53,735.42 91.18,1052.69 90.61,151.53 -39.62,334.03 -61.72,518.12z"/>
  <path class="fil0" d="M1966.94 1791.47c-55.86,65.22 -72.78,125.49 -155.92,175.37 -216.24,-18.92 -509.89,-310.89 -571.29,-474.24 44.32,-102.76 167,-129.41 97.11,-290.5 -45.56,-105.03 -84.09,-204.78 -145.07,-300.28 -116.44,-6.55 -146.84,-18.84 -215.53,51.51 -393.38,402.86 209.97,991.38 447.48,1152.33 780.57,528.95 1066.2,-45.71 930.03,-165.76 -8.86,-7.81 -275.95,-158.9 -386.81,-148.43z"/>
 </g>
</svg>
