<svg width="127" height="127" viewBox="0 0 127 127" fill="none" xmlns="http://www.w3.org/2000/svg">
<g clip-path="url(#clip0_290_91)">
<path fill-rule="evenodd" clip-rule="evenodd" d="M59.1498 0.203481C45.058 1.49522 32.7698 6.06623 22.5606 14.9663C14.8061 21.7266 8.10218 30.0157 4.32683 40.4418C1.24322 48.9562 -0.616847 57.849 0.18856 67.9418C0.906689 76.9437 3.45444 85.7768 7.1421 92.6399C9.09757 96.2796 12.4402 101.581 15.0878 104.394C15.8315 105.185 16.2094 105.828 16.973 106.589C23.9615 113.557 30.9219 119.023 40.6258 122.564C58.2116 128.981 75.888 127.98 92.4845 119.77C97.8223 117.129 104.28 112.45 108.357 108.006C109.045 107.255 109.757 106.766 110.418 105.998C115.001 100.674 119.389 94.7066 122.504 86.376C128.885 69.3151 128.294 50.3519 119.699 34.2048C117.734 30.5118 115.841 27.5147 113.496 24.5561C106.379 15.5777 97.6397 8.50072 86.2304 4.26503C78.2932 1.31822 68.5557 -0.65876 59.1502 0.203481H59.1498ZM61.8579 8.00709C52.916 8.4516 46.739 10.1846 39.5492 13.3803C30.5022 17.4016 22.5934 24.8553 17.31 32.5854C6.53764 48.3457 5.04536 70.0369 13.3771 87.3109C19.0759 99.1257 29.4938 109.499 41.7178 114.45C48.5829 117.231 56.7254 119.228 65.0482 118.829C79.8838 118.117 93.8189 112.175 103.34 101.861C105.6 99.4132 107.428 97.2267 109.518 94.2263C111.504 91.3761 112.762 88.6908 114.372 85.2589C122.348 68.2507 119.309 45.6051 108.302 30.88C106.361 28.2836 103.912 25.2856 101.761 23.3821C100.563 22.3213 99.5436 21.2951 98.1589 20.1938C88.263 12.3252 74.9543 7.35594 61.8579 8.00668V8.00709Z" fill="#4D7460"/>
<path fill-rule="evenodd" clip-rule="evenodd" d="M48.0118 35.9907C43.8922 37.0969 43.608 39.7092 43.6089 44.3943L43.6085 83.1196C43.6044 86.3388 43.8179 90.2993 48.3926 91.0255C51.572 91.5301 54.6686 89.0567 57.5212 87.294L81.4192 72.6923C83.0893 71.6539 88.1973 68.6722 89.3348 67.7008C92.0385 65.3913 91.4251 60.8325 89.0206 58.7625C87.0891 57.0993 83.5171 55.2242 81.1366 53.7454C75.8325 50.4503 70.4962 47.2932 65.2465 44.0431C62.5185 42.3544 59.937 40.8158 57.2387 39.1429C54.9227 37.707 51.4945 35.0554 48.0114 35.9907H48.0118ZM51.5355 81.6984L66.4164 72.6416C69.0157 71.099 71.3138 69.5998 73.8823 68.0982L81.327 63.4176L74.0195 58.8267C71.4328 57.2983 69.0823 55.8393 66.5695 54.2727L55.3315 47.3943C54.2184 46.6976 52.6734 45.6681 51.6012 45.1408L51.5351 81.6988L51.5355 81.6984Z" fill="#4D7460"/>
</g>
<defs>
<clipPath id="clip0_290_91">
<rect width="126.79" height="126.744" fill="white"/>
</clipPath>
</defs>
</svg>
