<?xml version="1.0" encoding="UTF-8"?>
<!DOCTYPE svg PUBLIC "-//W3C//DTD SVG 1.1//EN" "http://www.w3.org/Graphics/SVG/1.1/DTD/svg11.dtd">
<!-- Creator: CorelDRAW 2020 (64 Bit) -->
<svg xmlns="http://www.w3.org/2000/svg" xml:space="preserve" width="774.185mm" height="192.052mm" version="1.1" style="shape-rendering:geometricPrecision; text-rendering:geometricPrecision; image-rendering:optimizeQuality; fill-rule:evenodd; clip-rule:evenodd"
viewBox="0 0 151579.45 37602.22"
 xmlns:xlink="http://www.w3.org/1999/xlink"
 xmlns:xodm="http://www.corel.com/coreldraw/odm/2003">
 <defs>
  <style type="text/css">
   <![CDATA[
    .fil0 {fill:black;fill-rule:nonzero}
   ]]>
  </style>
 </defs>
 <g id="Camada_x0020_1">
  <metadata id="CorelCorpID_0Corel-Layer"/>
  <g id="_1366362379056">
   <polygon class="fil0" points="25888.32,158.3 28428.28,158.3 28428.28,20704.62 41098.84,20704.62 41098.84,23096.77 25888.32,23096.77 "/>
   <polygon class="fil0" points="69908.85,23096.81 67079,23096.81 59071.45,3476.94 51032.18,23096.81 48298.76,23096.81 57977.99,158.42 60229.09,158.42 "/>
   <polygon class="fil0" points="78665.25,158.3 81045.1,158.3 95226.43,18541.94 95226.43,158.3 97702.85,158.3 97702.85,23096.77 95676.72,23096.77 81141.31,4287.52 81141.31,23096.77 78665.25,23096.77 "/>
   <polygon class="fil0" points="114718.91,2408.68 107162.11,2408.68 107162.11,0.04 124849.02,0.04 124849.02,2408.68 117291.6,2408.68 117291.6,23096.95 114718.91,23096.95 "/>
   <polygon class="fil0" points="151319.28,23096.81 148489.43,23096.81 140482.14,3439.5 132442.81,23096.81 129709.25,23096.81 139388.95,114.42 141639.91,114.42 "/>
   <path class="fil0" d="M2866.46 11627.87l0 -9219.21 10537.64 0c-729.27,3070.98 -3064.56,8100.32 -10537.64,9219.21zm13576.14 -11624.62l-575.9 -0.76 0 -2.49 -15606.5 0 0 23096.85 2606.27 0 0 -8956.6c13413.06,-1707.37 13576.14,-14007.14 13576.14,-14137.01z"/>
  </g>
  <g id="_1366362385248">
   <polygon class="fil0" points="1461.04,32586.94 0.08,32586.94 0.08,31612.74 3979.15,31612.74 3979.15,32586.94 2517.69,32586.94 2517.69,36415.01 1461.04,36415.01 "/>
   <path class="fil0" d="M8973.51 33945.53c514.41,0 809.74,-274.32 809.74,-679.26l0 -13.78c0,-452.73 -315.81,-686.15 -830.22,-686.15l-1049.94 0 0 1379.2 1070.42 0zm-2126.44 -2332.69l2195.24 0c610.66,0 1083.87,171.46 1399.68,487.31 266.98,267.49 411.65,645 411.65,1097.18l0 14.08c0,775.3 -418.68,1262.16 -1029.22,1488.69l1173.5 1714.98 -1235.39 0 -1028.89 -1536.79 -14.08 0 -816.47 0 0 1536.79 -1056.03 0 0 -4802.24z"/>
   <path class="fil0" d="M16623.82 34405.07l-638.26 -1557.29 -638.3 1557.29 1276.57 0zm-1111.59 -2826.69l974.28 0 2058.01 4836.83 -1104.44 0 -439.04 -1077.15 -2030.31 0 -439.71 1077.15 -1076.82 0 2058.03 -4836.83z"/>
   <polygon class="fil0" points="21344.41,31612.72 22318.58,31612.72 24568.78,34569.69 24568.78,31612.72 25611.47,31612.72 25611.47,36415.05 24712.61,36415.05 22386.99,33362.26 22386.99,36415.05 21344.41,36415.05 "/>
   <path class="fil0" d="M28493.32 35715.31l623.97 -747.75c432.13,356.6 885.51,583.66 1434.18,583.66 432.02,0 692.89,-171.79 692.89,-453.18l0 -13.76c0,-267.59 -164.52,-404.8 -967.55,-610.73 -967.25,-246.89 -1591.56,-514.5 -1591.56,-1467.99l0 -13.74c0,-871.41 700.29,-1447.49 1680.88,-1447.49 699.6,0 1296.81,219.46 1784.12,610.54l-549.28 795.88c-425.34,-295.14 -843.59,-473.33 -1248.2,-473.33 -404.92,0 -617.9,185.22 -617.9,418.58l0 13.43c0,315.85 205.91,418.39 1036.25,631.37 974.18,253.83 1522.85,603.47 1522.85,1440.42l0 13.78c0,953.78 -727.17,1488.88 -1763.34,1488.88 -727.04,0 -1460.94,-253.83 -2037.32,-768.56z"/>
   <polygon class="fil0" points="35272.02,31612.72 38928.95,31612.72 38928.95,32573.32 36328.67,32573.32 36328.67,33595.39 38620.16,33595.39 38620.16,34555.91 36328.67,34555.91 36328.67,36415.05 35272.02,36415.05 "/>
   <path class="fil0" d="M45618.04 34027.6l0 -13.35c0,-823.31 -603.82,-1509.48 -1454.52,-1509.48 -850.33,0 -1441.09,672.21 -1441.09,1495.4l0 14.08c0,822.88 604.12,1509.05 1454.85,1509.05 850.7,0 1440.76,-672.43 1440.76,-1495.7zm-3999.14 0l0 -13.35c0,-1365.44 1076.72,-2483.76 2558.38,-2483.76 1482.27,0 2545.32,1104.54 2545.32,2469.68l0 14.08c0,1365.01 -1076.84,2483.33 -2559.08,2483.33 -1481.66,0 -2544.61,-1104.54 -2544.61,-2469.98z"/>
   <path class="fil0" d="M51848.11 33945.53c514.41,0 809.54,-274.32 809.54,-679.26l0 -13.78c0,-452.73 -315.83,-686.15 -830.24,-686.15l-1049.72 0 0 1379.2 1070.42 0zm-2126.32 -2332.69l2194.62 0c611.28,0 1084.49,171.46 1399.72,487.31 267.59,267.49 412.16,645 412.16,1097.18l0 14.08c0,775.3 -419.23,1262.16 -1029.14,1488.69l1172.87 1714.98 -1234.84 0 -1028.81 -1536.79 -14.39 0 -816.28 0 0 1536.79 -1055.91 0 0 -4802.24z"/>
   <polygon class="fil0" points="56740.27,31612.72 57878.76,31612.72 59141.33,33643.32 60403.8,31612.72 61542.31,31612.72 61542.31,36415.05 60492.69,36415.05 60492.69,33279.91 59141.33,35331.3 59114.11,35331.3 57775.78,33300.29 57775.78,36415.05 56740.27,36415.05 "/>
   <path class="fil0" d="M67511.37 34405.07l-637.77 -1557.29 -638.34 1557.29 1276.12 0zm-1111.61 -2826.69l974.81 0 2058.03 4836.83 -1105.07 0 -438.46 -1077.15 -2030.93 0 -439.04 1077.15 -1077.37 0 2058.03 -4836.83z"/>
   <path class="fil0" d="M73343.46 37238.48l549.16 -809.42c-1104.74,-254.16 -1873.4,-1221.41 -1873.4,-2401.39l0 -13.33c0,-1365.57 1028.81,-2483.78 2504.14,-2483.78 905.85,0 1448.1,301.76 1893.59,740.94l-672.41 775.26c-370.26,-336.29 -747.97,-541.91 -1227.62,-541.91 -809.72,0 -1392.53,672.21 -1392.53,1495.4l0 14.1c0,822.97 569.05,1509.03 1392.53,1509.03 548.65,0 884.57,-219.66 1262.27,-562.61l671.9 679.13c-459.25,494.04 -966.92,809.54 -1790.44,850.74l-445.78 1111.61 -871.41 -363.74z"/>
   <path class="fil0" d="M80280.04 31132.56c158.02,-576.37 370.67,-946.42 850.74,-946.42 425.28,0 782.21,267.63 1028.81,267.63 212.63,0 295.31,-116.97 391.15,-336.63l555.27 171.53c-157.5,576.3 -370.05,946.97 -849.66,946.97 -425.63,0 -783.07,-267.47 -1029.77,-267.47 -212.22,0 -294.8,116.3 -391.25,335.88l-555.29 -171.49zm2860.84 2895l0 -13.45c0,-823.19 -603.61,-1509.38 -1454.52,-1509.38 -851.03,0 -1440.44,672.23 -1440.44,1495.32l0 14.06c0,823.19 603.47,1509.17 1454.5,1509.17 850.33,0 1440.46,-672.19 1440.46,-1495.72zm-3999.84 0l0 -13.45c0,-1365.44 1077.35,-2483.64 2559.38,-2483.64 1481.56,0 2544.93,1104.78 2544.93,2469.59l0 14.06c0,1365.14 -1077.37,2483.43 -2558.99,2483.43 -1481.76,0 -2545.32,-1104.66 -2545.32,-2469.98z"/>
   <polygon class="fil0" points="87243.87,31612.72 90866.02,31612.72 90866.02,32552.74 88293.47,32552.74 88293.47,33527.1 90557.73,33527.1 90557.73,34466.84 88293.47,34466.84 88293.47,35475.23 90900.78,35475.23 90900.78,36415.05 87243.87,36415.05 "/>
   <path class="fil0" d="M93569.88 35715.31l624.21 -747.75c432.11,356.6 885.18,583.66 1433.83,583.66 432.02,0 693.24,-171.79 693.24,-453.18l0 -13.76c0,-267.59 -164.88,-404.8 -967.78,-610.73 -967.23,-246.89 -1591.34,-514.5 -1591.34,-1467.99l0 -13.74c0,-871.41 699.96,-1447.49 1680.96,-1447.49 699.53,0 1296.44,219.46 1784.04,610.54l-549.28 795.88c-425.63,-295.14 -843.59,-473.33 -1248.53,-473.33 -404.92,0 -617.57,185.22 -617.57,418.58l0 13.43c0,315.85 205.62,418.39 1036.25,631.37 973.87,253.83 1522.85,603.47 1522.85,1440.42l0 13.78c0,953.78 -727.39,1488.88 -1763.23,1488.88 -727.47,0 -1461.35,-253.83 -2037.65,-768.56z"/>
   <path class="fil0" d="M104389.83 34357.14l0 -2744.52 1056.03 0 0 2716.68c0,782.44 390.84,1187.25 1035.53,1187.25 645.43,0 1036.47,-391.15 1036.47,-1152.79l0 -2751.14 1056.44 0 0 2710.06c0,1454.56 -816.24,2168.14 -2105.73,2168.14 -1290.31,0 -2078.73,-720.44 -2078.73,-2133.69z"/>
   <path class="fil0" d="M113837.16 33945.53c514.41,0 809.21,-274.32 809.21,-679.26l0 -13.78c0,-452.73 -315.52,-686.15 -829.9,-686.15l-1049.72 0 0 1379.2 1070.42 0zm-2126.95 -2332.69l2195.54 0c610.32,0 1083.53,171.46 1399.39,487.31 267.59,267.49 411.65,645 411.65,1097.18l0 14.08c0,775.3 -418.17,1262.16 -1029.22,1488.69l1173.46 1714.98 -1235.35 0 -1028.93 -1536.79 -13.76 0 -816.24 0 0 1536.79 -1056.53 0 0 -4802.24z"/>
   <path class="fil0" d="M121013.75 35489.09c466.18,0 747.75,-164.64 747.75,-521.47l0 -13.63c0,-322.59 -240.41,-521.55 -782.54,-521.55l-1221.16 0 0 1056.65 1255.95 0zm-281.06 -1934.7c465.99,0 760.89,-151.09 760.89,-507.47l0 -13.96c0,-315.52 -246.48,-494.04 -692.81,-494.04l-1042.97 0 0 1015.48 974.89 0zm-2004.03 -1941.83l2229.82 0c548.86,0 981,151.09 1255.54,425.63 219.5,219.37 328.97,486.97 328.97,816.24l0 14.1c0,541.84 -287.78,843.55 -630.39,1035.53 555.58,212.87 898.53,535.2 898.53,1180.1l0 13.76c0,878.23 -713.74,1317.23 -1797.37,1317.23l-2285.09 0 0 -4802.59z"/>
   <path class="fil0" d="M128499.1 34405.07l-638.4 -1557.29 -638.26 1557.29 1276.66 0zm-1111.61 -2826.69l973.73 0 2057.95 4836.83 -1103.96 0 -439.38 -1077.15 -2030.5 0 -439.18 1077.15 -1076.7 0 2058.03 -4836.83z"/>
   <polygon class="fil0" points="133219.55,31612.72 134193.21,31612.72 136443.51,34569.69 136443.51,31612.72 137486.61,31612.72 137486.61,36415.05 136587.87,36415.05 134261.62,33362.26 134261.62,36415.05 133219.55,36415.05 "/>
   <path class="fil0" d="M143455.59 34405.07l-637.77 -1557.29 -638.26 1557.29 1276.04 0zm-1111.61 -2826.69l974.81 0 2058.03 4836.83 -1104.99 0 -438.54 -1077.15 -2030.82 0 -439.16 1077.15 -1077.37 0 2058.03 -4836.83z"/>
   <path class="fil0" d="M147778.49 35715.31l624.5 -747.75c432.15,356.6 884.86,583.66 1433.53,583.66 432.23,0 692.91,-171.79 692.91,-453.18l0 -13.76c0,-267.59 -164.88,-404.8 -967.25,-610.73 -967.04,-246.89 -1591.54,-514.5 -1591.54,-1467.99l0 -13.74c0,-871.41 699.33,-1447.49 1680.54,-1447.49 700.23,0 1296.81,219.46 1783.79,610.54l-548.34 795.88c-425.61,-295.14 -844.51,-473.33 -1249.43,-473.33 -404.29,0 -617.27,185.22 -617.27,418.58l0 13.43c0,315.85 205.91,418.39 1036.25,631.37 973.56,253.83 1523.17,603.47 1523.17,1440.42l0 13.78c0,953.78 -727.49,1488.88 -1763.03,1488.88 -727.35,0 -1461.55,-253.83 -2037.83,-768.56z"/>
  </g>
 </g>
</svg>
