<?xml version="1.0" encoding="UTF-8"?>
<!DOCTYPE svg PUBLIC "-//W3C//DTD SVG 1.1//EN" "http://www.w3.org/Graphics/SVG/1.1/DTD/svg11.dtd">
<!-- Creator: CorelDRAW 2020 (64 Bit) -->
<svg xmlns="http://www.w3.org/2000/svg" xml:space="preserve" width="565.177mm" height="565.174mm" version="1.1" style="shape-rendering:geometricPrecision; text-rendering:geometricPrecision; image-rendering:optimizeQuality; fill-rule:evenodd; clip-rule:evenodd"
viewBox="0 0 57205.02 57204.69"
 xmlns:xlink="http://www.w3.org/1999/xlink"
 xmlns:xodm="http://www.corel.com/coreldraw/odm/2003">
 <defs>
  <style type="text/css">
   <![CDATA[
    .fil0 {fill:url(#id0)}
    .fil1 {fill:url(#id1)}
   ]]>
  </style>
  <linearGradient id="id0" gradientUnits="userSpaceOnUse" x1="0.21" y1="28602.4" x2="57205.23" y2="28602.4">
   <stop offset="0" style="stop-opacity:1; stop-color:#4D7460"/>
   <stop offset="1" style="stop-opacity:1; stop-color:#00A99D"/>
  </linearGradient>
  <linearGradient id="id1" gradientUnits="userSpaceOnUse" xlink:href="#id0" x1="0.21" y1="15977.83" x2="31377.62" y2="15977.83">
  </linearGradient>
 </defs>
 <g id="Camada_x0020_1">
  <metadata id="CorelCorpID_0Corel-Layer"/>
  <path class="fil0" d="M57205.02 57204.69l0 -2649.23c-387.94,-156.3 -785.73,-329.76 -1188.72,-523.36l0 0c-2085.91,-1000.42 -3919.53,-2332.29 -5450.62,-3958.43l0 0c-1425.76,-1515.08 -2596.57,-3297.52 -3496.01,-5317.96l0 0c3897.07,81.8 7412.15,11.55 10135.35,-93.46l0 -3350.62c-3739.61,147.29 -9064.79,230.37 -14829.07,-81.49l0 0c-12474.74,-674.68 -21950.77,-2903.01 -27667.26,-6479.76l0 0c6747.86,-3535.63 13649.36,-7374 19715.33,-10837.04l0 0c2628.36,2175.56 7824.45,3550.89 15790.59,4189.33l0 0c2523.24,202.28 4950.9,297.97 6990.41,339.08l0 -3352c-1977.52,-40.36 -4317.23,-132.77 -6722.75,-325.62l0 0c-7308.62,-585.78 -10977.24,-1740.58 -12814.99,-2712.5l0 0c121.86,-69.83 243.72,-140.51 365.26,-210.44l0 0c7860.28,-4538.59 14787.95,-8695.81 19172.47,-11357.76l0 -3921.77c-3585.65,2186.48 -9932,6019.24 -17484.65,10420.28l0 0c15.99,-875.59 74.38,-1939.47 217.54,-3148l0 0c376.81,-3187.22 1435.4,-8064.47 4338.53,-13200.39l0 0c119.31,-211.5 242.23,-422.8 367.49,-633.56l-3836.89 0c-2786.46,5294.76 -3830.53,10257.94 -4210.73,13571.15l0 0c-176.85,1542.43 -230.68,2872.08 -230.68,3919.12l0 0c0,555.89 15.36,1031.36 35.18,1417.18l0 0c-11665.48,6735.14 -25489.05,14377.97 -36400.8,19410.25l0 0 0 3681.01c3052.22,-1377.12 6344.45,-2970.72 9741.37,-4688.74l0 0c201.44,2222.3 801.52,6950.04 2524.41,12519.56l0 0c802.26,2595.83 1755.1,5060.46 2845.89,7375.17l0 0 3731.88 0c-1308.35,-2549.51 -2431.69,-5320.18 -3351.36,-8278.31l0 0c-1473.97,-4740.02 -2090.37,-8900.32 -2339.7,-11200.82l0 0c3079.87,1883.74 7023.68,3407.1 11775.68,4544.21l0 0c1401.49,334.95 2875.89,637.8 4419.38,907.27l0 0c143.59,1817.51 605.91,5405.8 2096.73,9557.83l0 0c559.59,1557.37 1213.09,3049.67 1955.05,4469.82l0 0 3836.25 0c-1020.24,-1702.01 -1890.41,-3539.34 -2599.65,-5492.17l0 0c-1192.42,-3286.29 -1675.41,-6220.77 -1871.33,-8007.66l0 0c2938.3,398.1 6088.42,688.98 9430.77,869.55l0 0c405.96,22.03 809.68,42.28 1211.61,60.18l0 0c1117.29,3011.53 2724.04,5634.59 4787.5,7805.71l0 0c1834.67,1931.21 4026.03,3505.32 6511.23,4677.61l0 0c62.72,29.24 124.39,58.38 186.49,86.78l0 0 2312.8 0z"/>
  <path class="fil1" d="M27181.2 0c-2543.8,3342.35 -5458.9,7011.39 -8589.95,10635.19l0 0c-1090.81,1262.36 -2165.61,2470.57 -3223.89,3625.27l0 0c-95.68,-6017.01 226.56,-10679.26 727.45,-14260.45l0 0 -3393.52 0c-468.37,3528.11 -703.93,7550.43 -703.93,12050.88l0 0c0,1805.11 38.15,3687.37 114.02,5645.08l0 0c-4349.01,4425.63 -8396.03,7872.99 -12111.38,10316.65l0 0 0 3943.06c11488.94,-6802.42 23572.35,-21505.5 31377.73,-31955.66l-4196.53 0z"/>
 </g>
</svg>
