<?xml version="1.0" encoding="UTF-8"?>
<!DOCTYPE svg PUBLIC "-//W3C//DTD SVG 1.1//EN" "http://www.w3.org/Graphics/SVG/1.1/DTD/svg11.dtd">
<!-- Creator: CorelDRAW 2020 (64 Bit) -->
<svg xmlns="http://www.w3.org/2000/svg" xml:space="preserve" width="144.927mm" height="55.117mm" version="1.1" style="shape-rendering:geometricPrecision; text-rendering:geometricPrecision; image-rendering:optimizeQuality; fill-rule:evenodd; clip-rule:evenodd"
viewBox="0 0 6046.28 2299.45"
 xmlns:xlink="http://www.w3.org/1999/xlink"
 xmlns:xodm="http://www.corel.com/coreldraw/odm/2003">
 <defs>
  <style type="text/css">
   <![CDATA[
    .fil0 {fill:white;fill-rule:nonzero}
   ]]>
  </style>
 </defs>
 <g id="Camada_x0020_1">
  <metadata id="CorelCorpID_0Corel-Layer"/>
  <polygon class="fil0" points="3069.56,0 3029.41,86.91 3138.49,86.91 3180.39,0 "/>
  <path class="fil0" d="M1469.18 2299.45l-1375.33 -1880.69 -3.6 0c0,3.6 7.21,223.8 7.21,472.88l0 1407.81 -97.46 0 0 -2021.48 97.46 0 1371.72 1862.65 3.61 0c0,-3.61 -7.21,-220.19 -7.21,-462.05l0 -1400.6 97.46 0 0 2021.48 -93.86 0z"/>
  <path class="fil0" d="M4916.41 1739.93c-350.14,425.96 -393.48,465.67 -393.48,465.67l3.62 3.6c0,0 79.4,-3.6 227.4,-3.6l1292.32 0 0 93.85 -1649.68 0 0 -86.64 1162.35 -1400.58c296,-360.98 368.21,-436.78 368.21,-440.4l-3.6 0 -231.03 0 -1267.05 0 0 -93.86 1620.8 0 0 86.63 -1129.86 1375.33z"/>
  <path class="fil0" d="M4027.7 1384.3c-56.66,465.82 -452.86,816.68 -922.8,816.68 -469.94,0 -866.14,-350.87 -922.8,-816.68l-95.52 0c27.37,248.14 144.97,477.59 331.44,646.4 188.68,170.87 432.7,265.06 686.88,265.06 254.17,0 498.19,-94.19 686.87,-265.06 186.47,-168.81 304.07,-398.26 331.44,-646.4l-95.52 0zm-235.92 -872.47c-188.68,-170.87 -432.7,-265.06 -686.87,-265.06 -254.18,0 -498.2,94.19 -686.88,265.06 -186.47,168.81 -304.07,398.26 -331.44,646.4l95.52 0c56.66,-465.82 452.87,-816.68 922.8,-816.68 469.94,0 866.13,350.87 922.8,816.68l95.52 0c-27.38,-248.14 -144.97,-477.59 -331.44,-646.4z"/>
 </g>
</svg>
