<?xml version="1.0" encoding="UTF-8"?>
<!DOCTYPE svg PUBLIC "-//W3C//DTD SVG 1.1//EN" "http://www.w3.org/Graphics/SVG/1.1/DTD/svg11.dtd">
<!-- Creator: CorelDRAW 2020 (64 Bit) -->
<svg xmlns="http://www.w3.org/2000/svg" xml:space="preserve" width="120.233mm" height="142.947mm" version="1.1" style="shape-rendering:geometricPrecision; text-rendering:geometricPrecision; image-rendering:optimizeQuality; fill-rule:evenodd; clip-rule:evenodd"
viewBox="0 0 7789.87 9261.53"
 xmlns:xlink="http://www.w3.org/1999/xlink"
 xmlns:xodm="http://www.corel.com/coreldraw/odm/2003">
 <defs>
  <style type="text/css">
   <![CDATA[
    .fil2 {fill:white}
    .fil1 {fill:url(#id0)}
    .fil0 {fill:url(#id1);fill-rule:nonzero;fill-opacity:0.200000}
   ]]>
  </style>
  <linearGradient id="id0" gradientUnits="userSpaceOnUse" x1="3976.57" y1="466.25" x2="3976.57" y2="7160.35">
   <stop offset="0" style="stop-opacity:1; stop-color:#4AC14B"/>
   <stop offset="1" style="stop-opacity:1; stop-color:#06853A"/>
  </linearGradient>
  <radialGradient id="id1" gradientUnits="userSpaceOnUse" gradientTransform="matrix(0.989645 -0 -0 0.0521057 40 8613)" cx="3894.93" cy="9086.4" r="2290.55" fx="3894.93" fy="9086.4">
   <stop offset="0" style="stop-opacity:1; stop-color:black"/>
   <stop offset="1" style="stop-opacity:1; stop-color:#DAE5DF"/>
  </radialGradient>
 </defs>
 <g id="Camada_x0020_1">
  <metadata id="CorelCorpID_0Corel-Layer"/>
  <g id="OBJECTS">
   <path class="fil0" d="M7167.15 9086.4c0,-96.72 -1465.02,-175.13 -3272.22,-175.13 -1807.19,0 -3272.22,78.41 -3272.22,175.13 0,96.72 1465.02,175.13 3272.22,175.13 1807.19,0 3272.22,-78.41 3272.22,-175.13z"/>
   <g>
    <path class="fil1" d="M3985.5 474.71c-1861.26,0 -3374.83,1501.96 -3374.83,3348.71 0,732.35 238.6,1411.12 642.77,1963.36l-421.43 1243.39 1296.64 -412.01c532.72,349.54 1171.06,553.62 1856.85,553.62 1860.5,0 3374.48,-1502.09 3374.48,-3348.36 -0.01,-1846.75 -1513.99,-3348.71 -3374.48,-3348.71l0 0z"/>
    <g>
     <path class="fil2" d="M7789.87 3794.74c0,2095.36 -1712.03,3794.41 -3823.96,3794.41 -670.69,0 -1300.81,-171.27 -1848.58,-472.15l-2117.32 672.84 690.18 -2035.74c-348.29,-571.91 -548.54,-1242.6 -548.54,-1959.36 0,-2095.8 1712.03,-3794.74 3824.26,-3794.74 2111.91,-0.01 3823.97,1698.94 3823.97,3794.74l0 0zm-3823.96 -3190.37c-1773.26,0 -3215.26,1430.96 -3215.26,3190.4 0,697.74 227.3,1344.4 612.38,1870.54l-401.52 1184.58 1235.33 -392.53c507.53,333.02 1115.68,527.45 1769.04,527.45 1772.52,0 3214.94,-1431.07 3214.94,-3190.04 0.03,-1759.46 -1442.39,-3190.4 -3214.91,-3190.4l0 0zm1931.03 4064.35c-23.7,-38.83 -86.24,-62.09 -179.6,-108.63 -93.8,-46.42 -554.93,-271.68 -640.73,-302.51 -85.8,-30.94 -148.76,-46.53 -210.87,46.42 -62.54,93.04 -242.24,302.62 -297.1,364.72 -54.53,62.2 -109.07,69.77 -202.86,23.27 -93.91,-46.42 -396.09,-144.99 -753.99,-461.43 -278.49,-246.9 -466.63,-551.15 -521.6,-644.19 -54.42,-92.93 -5.42,-143.24 41.01,-189.67 42.31,-41.88 93.91,-108.63 140.77,-162.73 46.97,-54.53 62.54,-93.47 93.8,-155.57 31.27,-62.09 15.7,-116.19 -8,-162.73 -23.27,-46.42 -210.87,-504.18 -289.1,-690.58 -77.69,-185.88 -155.9,-178.94 -210.87,-178.94 -54.53,0 -155.7,16.22 -155.7,16.22 0,0 -187.92,23.27 -273.7,116.3 -85.8,92.93 -327.93,318.19 -327.93,775.51 0,457.65 335.61,900.17 382.46,961.83 46.94,62.2 648.3,1032.06 1601.36,1404.45 953.07,372.28 953.07,248.09 1124.99,232.39 171.6,-15.13 554.49,-224.82 632.7,-442.08 78.22,-217.23 78.22,-403.56 54.95,-442.06l0 0zm0 0z"/>
    </g>
   </g>
  </g>
 </g>
</svg>
